<svg width="128" height="128" xmlns="http://www.w3.org/2000/svg">
  <g stroke="#333" fill="#f2f2f2">
    <path fill="#228b22" d="M11.461 61.327H116.54v55.714H11.461z"/>
    <path fill="#333" d="M11.461 49.567H116.54v11.76H11.461z"/>
    <path transform="matrix(1 0 0 -1 0 110.894)" d="m27.04 49.567 5.163 11.76h9.73l-5.164-11.76Zm16.393 0 5.162 11.76h9.733l-5.164-11.76Zm16.393 0 5.162 11.76h9.732l-5.164-11.76Zm16.392 0 5.162 11.76h9.733l-5.164-11.76Zm16.393 0 5.162 11.76h9.73l-5.162-11.76z"/>
    <g transform="rotate(-18.115 -17.902 58.66)">
      <path fill="#333" d="M11.461 49.567H116.54v11.76H11.461z"/>
      <path d="m27.04 49.567 5.163 11.76h9.73l-5.164-11.76Zm16.393 0 5.162 11.76h9.733l-5.164-11.76Zm16.393 0 5.162 11.76h9.732l-5.164-11.76Zm16.392 0 5.162 11.76h9.733l-5.164-11.76Zm16.393 0 5.162 11.76h9.73l-5.162-11.76z"/>
    </g>
  </g>
  <path fill="#f2f2f2" d="M64 75.451a13.732 13.732 0 0 0-5.133 1.03L77.6 87.294A13.732 13.732 0 0 0 64 75.45zm-8.955 3.326a13.732 13.732 0 0 0-4.777 10.407 13.732 13.732 0 0 0 4.777 10.406V78.777zm22.55 12.297-18.73 10.815A13.732 13.732 0 0 0 64 102.916a13.732 13.732 0 0 0 13.596-11.842z"/>
</svg>
